# xmcd
#
# Track frame offsets: 
#        150
#        9340
#        21680
#        30999
#        41610
#        50217
#        61693
#        70062
#        77491
#        89589
#        96244
#        107278
#        116306
#        128040
#        141346
#        149624
#        160639
#        169940
#        179996
#        190027
#        195182
#        204170
#        213057
#        220042
#        230308
#        242102
#        246370
#        258162
#        267250
#
# Disc length: 3679 seconds
#
# Revision: 1
# Processed by: cddbd v1.5.2PL0 Copyright (c) Steve Scherf et al.
# Submitted via: ExactAudioCopyFreeDBPlugin 1.0
#
DISCID=8f0e5d1d
DTITLE=Михаил Щербаков - Ковчег неутомимый 1
DYEAR=2001
DGENRE=Acoustic
TTITLE0=Восходя дорогой горной...
TTITLE1=Романс 1
TTITLE2=Ad Leuconoen
TTITLE3=Болеро
TTITLE4=Душа
TTITLE5=Прощальная 1
TTITLE6=Кони в вагоне
TTITLE7=Мария
TTITLE8=Прощальная 2
TTITLE9=Ковчег неутомимый
TTITLE10=Юбилейная
TTITLE11=Маленькая хозяйка
TTITLE12=Кибитка
TTITLE13=Балаган 1
TTITLE14=Песня среднего человека 1
TTITLE15=Когда-то ты была...
TTITLE16=Песня о героях
TTITLE17=Знамя наше...
TTITLE18=Щит и меч
TTITLE19=Я исполняю всё...
TTITLE20=Дело шло к рассвету...
TTITLE21=Дорога
TTITLE22=Моя работа
TTITLE23=Май
TTITLE24=Новый гений
TTITLE25=Толпа художнику
TTITLE26=Вечно открытый...
TTITLE27=Всё равно не по себе
TTITLE28=У нас опять зима...
EXTD=
EXTT0=
EXTT1=
EXTT2=
EXTT3=
EXTT4=
EXTT5=
EXTT6=
EXTT7=
EXTT8=
EXTT9=
EXTT10=
EXTT11=
EXTT12=
EXTT13=
EXTT14=
EXTT15=
EXTT16=
EXTT17=
EXTT18=
EXTT19=
EXTT20=
EXTT21=
EXTT22=
EXTT23=
EXTT24=
EXTT25=
EXTT26=
EXTT27=
EXTT28=
PLAYORDER=
